<svg width="20" height="20" viewBox="0 0 20 20" fill="none" xmlns="http://www.w3.org/2000/svg">
<path fill-rule="evenodd" clip-rule="evenodd" d="M-6.10349e-05 9.9C-6.10349e-05 4.43238 4.4323 0 9.8999 0C15.3675 0 19.7999 4.43238 19.7999 9.9C19.7999 15.3676 15.3675 19.8 9.8999 19.8C4.4323 19.8 -6.10349e-05 15.3676 -6.10349e-05 9.9ZM14.5466 7.77584C14.8923 7.41868 14.883 6.84891 14.5258 6.50322C14.1687 6.15752 13.5989 6.16681 13.2532 6.52397L8.57728 11.3549L6.54747 9.25212C6.20227 8.89449 5.63251 8.88443 5.27489 9.22964C4.91726 9.57485 4.9072 10.1446 5.25241 10.5022L7.92887 13.275C8.09832 13.4505 8.33179 13.5497 8.57579 13.5499C8.81978 13.5501 9.05339 13.4512 9.22308 13.2758L14.5466 7.77584Z" fill="white"/>
</svg>
